<svg width="30" height="30" viewBox="0 0 30 30" fill="none" xmlns="http://www.w3.org/2000/svg">
<g id="Layer 2">
<g id="trending-up">
<path id="Vector" d="M26.25 8.75C26.2618 8.6629 26.2618 8.5746 26.25 8.4875C26.2391 8.41411 26.2181 8.34259 26.1875 8.275C26.1545 8.21391 26.1169 8.15541 26.075 8.1C26.0274 8.02094 25.9685 7.94934 25.9 7.8875L25.75 7.8C25.6778 7.7462 25.5977 7.70402 25.5125 7.675H25.2625C25.1863 7.60124 25.0974 7.54195 25 7.5H18.75C18.4185 7.5 18.1005 7.6317 17.8661 7.86612C17.6317 8.10054 17.5 8.41848 17.5 8.75C17.5 9.08152 17.6317 9.39946 17.8661 9.63388C18.1005 9.8683 18.4185 10 18.75 10H22.2875L17.2875 15.8875L11.8875 12.675C11.6317 12.5229 11.3301 12.467 11.0368 12.5174C10.7435 12.5678 10.4778 12.7212 10.2875 12.95L4.0375 20.45C3.93225 20.5763 3.85295 20.7221 3.80415 20.8791C3.75534 21.0362 3.73799 21.2012 3.75308 21.365C3.76818 21.5287 3.81542 21.6878 3.89211 21.8333C3.9688 21.9787 4.07343 22.1076 4.2 22.2125C4.42489 22.3989 4.70794 22.5006 5 22.5C5.18364 22.5003 5.36509 22.4601 5.53145 22.3824C5.6978 22.3046 5.84498 22.1911 5.9625 22.05L11.525 15.375L16.8625 18.575C17.1157 18.7252 17.4137 18.7812 17.7041 18.7331C17.9945 18.6851 18.2587 18.5362 18.45 18.3125L23.75 12.125V15C23.75 15.3315 23.8817 15.6495 24.1161 15.8839C24.3505 16.1183 24.6685 16.25 25 16.25C25.3315 16.25 25.6495 16.1183 25.8839 15.8839C26.1183 15.6495 26.25 15.3315 26.25 15V8.75Z" fill="white"/>
</g>
</g>
</svg>
