<svg width="9" height="12" viewBox="0 0 9 12" fill="none" xmlns="http://www.w3.org/2000/svg">
<g id="Group">
<path id="Vector" d="M6.33337 8.33335C6.33337 8.51016 6.40361 8.67973 6.52864 8.80476C6.65366 8.92978 6.82323 9.00002 7.00004 9.00002C7.17685 9.00002 7.34642 8.92978 7.47145 8.80476C7.59647 8.67973 7.66671 8.51016 7.66671 8.33335C7.66671 8.15654 7.59647 7.98697 7.47145 7.86195C7.34642 7.73693 7.17685 7.66669 7.00004 7.66669C6.82323 7.66669 6.65366 7.73693 6.52864 7.86195C6.40361 7.98697 6.33337 8.15654 6.33337 8.33335Z" stroke="white" stroke-linecap="round" stroke-linejoin="round"/>
<path id="Vector_2" d="M0.666687 2.66668C0.666687 2.31305 0.807163 1.97392 1.05721 1.72387C1.30726 1.47382 1.6464 1.33334 2.00002 1.33334C2.35364 1.33334 2.69278 1.47382 2.94283 1.72387C3.19288 1.97392 3.33335 2.31305 3.33335 2.66668V8.66668C3.33335 9.19711 3.54407 9.70582 3.91914 10.0809C4.29421 10.456 4.80292 10.6667 5.33335 10.6667C5.86379 10.6667 6.37249 10.456 6.74757 10.0809C7.12264 9.70582 7.33335 9.19711 7.33335 8.66668V8.33334M1.33335 5.33334H5.33335" stroke="white" stroke-linecap="round" stroke-linejoin="round"/>
</g>
</svg>
