<svg width="619" height="146" viewBox="0 0 619 146" fill="none" xmlns="http://www.w3.org/2000/svg">
<path fill-rule="evenodd" clip-rule="evenodd" d="M619 67.4169L607.422 60.8683C595.843 54.3197 573.577 42.158 550.42 25.3187C527.263 9.41502 504.106 -10.2308 481.84 9.41502C458.683 29.0608 435.527 87.0626 412.37 97.3533C390.104 106.708 366.947 67.4169 343.79 38.4159C320.633 9.41502 298.367 -10.2308 275.21 5.67296C252.053 22.5122 228.896 73.9655 206.63 84.2561C183.473 93.6112 160.317 60.8683 137.16 60.8683C114.894 60.8683 91.7367 93.6112 68.5798 100.16C45.423 106.708 23.1569 87.0626 11.5784 77.7075L0 67.4169V146H11.5784C23.1569 146 45.423 146 68.5798 146C91.7367 146 114.894 146 137.16 146C160.317 146 183.473 146 206.63 146C228.896 146 252.053 146 275.21 146C298.367 146 320.633 146 343.79 146C366.947 146 390.104 146 412.37 146C435.527 146 458.683 146 481.84 146C504.106 146 527.263 146 550.42 146C573.577 146 595.843 146 607.422 146H619V67.4169Z" fill="url(#paint0_linear_20_224)"/>
<defs>
<linearGradient id="paint0_linear_20_224" x1="309.5" y1="0" x2="309.5" y2="146" gradientUnits="userSpaceOnUse">
<stop stop-color="#01D492" stop-opacity="0.58"/>
<stop offset="0.947917" stop-color="#5E6077" stop-opacity="0"/>
</linearGradient>
</defs>
</svg>
