<svg width="619" height="146" viewBox="0 0 619 146" fill="none" xmlns="http://www.w3.org/2000/svg">
<path fill-rule="evenodd" clip-rule="evenodd" d="M619.001 67.4169L607.423 60.8683C595.845 54.3197 573.578 42.158 550.421 25.3187C527.265 9.41502 504.108 -10.2308 481.841 9.41502C458.685 29.0608 435.528 87.0626 412.371 97.3533C390.104 106.708 366.948 67.4169 343.791 38.4159C320.634 9.41502 298.368 -10.2308 275.211 5.67296C252.054 22.5122 228.897 73.9655 206.631 84.2561C183.474 93.6112 160.317 60.8683 137.16 60.8683C114.894 60.8683 91.7368 93.6112 68.58 100.16C45.423 106.708 23.1569 87.0626 11.5784 77.7075L-6.10352e-05 67.4169V146H11.5784C23.1569 146 45.423 146 68.58 146C91.7368 146 114.894 146 137.16 146C160.317 146 183.474 146 206.631 146C228.897 146 252.054 146 275.211 146C298.368 146 320.634 146 343.791 146C366.948 146 390.104 146 412.371 146C435.528 146 458.685 146 481.841 146C504.108 146 527.265 146 550.421 146C573.578 146 595.845 146 607.423 146H619.001V67.4169Z" fill="url(#paint0_linear_18_216)"/>
<defs>
<linearGradient id="paint0_linear_18_216" x1="309.501" y1="0" x2="309.501" y2="146" gradientUnits="userSpaceOnUse">
<stop stop-color="#FF8391" stop-opacity="0.58"/>
<stop offset="0.947917" stop-color="#4D5070" stop-opacity="0"/>
</linearGradient>
</defs>
</svg>
