<svg width="621" height="104" viewBox="0 0 621 104" fill="none" xmlns="http://www.w3.org/2000/svg">
<path d="M620 68.4169L608.422 61.8683C596.843 55.3197 574.577 43.158 551.42 26.3187C528.263 10.415 505.106 -9.23077 482.84 10.415C459.683 30.0608 436.527 88.0626 413.37 98.3533C391.104 107.708 367.947 68.4169 344.79 39.4159C321.633 10.415 299.367 -9.23077 276.21 6.67296C253.053 23.5122 229.896 74.9655 207.63 85.2561C184.473 94.6112 161.317 61.8683 138.16 61.8683C115.894 61.8683 92.7367 94.6112 69.5799 101.16C46.423 107.708 24.1569 88.0626 12.5784 78.7075L1 68.4169" stroke="#01D492" stroke-width="2"/>
</svg>
