<svg width="621" height="104" viewBox="0 0 621 104" fill="none" xmlns="http://www.w3.org/2000/svg">
<path d="M620.001 68.4169L608.423 61.8683C596.845 55.3197 574.578 43.158 551.421 26.3187C528.265 10.415 505.108 -9.23077 482.841 10.415C459.685 30.0608 436.528 88.0626 413.371 98.3533C391.104 107.708 367.948 68.4169 344.791 39.4159C321.634 10.415 299.368 -9.23077 276.211 6.67296C253.054 23.5122 229.897 74.9655 207.631 85.2561C184.474 94.6112 161.317 61.8683 138.16 61.8683C115.894 61.8683 92.7368 94.6112 69.5799 101.16C46.4231 107.708 24.1568 88.0626 12.5784 78.7075L0.999926 68.4169" stroke="#E53F52" stroke-width="2"/>
</svg>
