<svg width="24" height="24" viewBox="0 0 24 24" fill="none" xmlns="http://www.w3.org/2000/svg">
<g id="Product">
<path id="Vector" d="M12.001 22C6.47801 22 2.00101 17.523 2.00101 12C2.00101 6.477 6.47801 2 12.001 2C17.524 2 22.001 6.477 22.001 12C22.001 17.523 17.524 22 12.001 22ZM12.001 20C14.1227 20 16.1576 19.1571 17.6579 17.6569C19.1582 16.1566 20.001 14.1217 20.001 12C20.001 9.87827 19.1582 7.84344 17.6579 6.34315C16.1576 4.84285 14.1227 4 12.001 4C9.87928 4 7.84444 4.84285 6.34415 6.34315C4.84386 7.84344 4.00101 9.87827 4.00101 12C4.00101 14.1217 4.84386 16.1566 6.34415 17.6569C7.84444 19.1571 9.87928 20 12.001 20ZM13.335 12C13.7328 12 14.1144 11.842 14.3957 11.5607C14.677 11.2794 14.835 10.8978 14.835 10.5C14.835 10.1022 14.677 9.72064 14.3957 9.43934C14.1144 9.15804 13.7328 9 13.335 9H10.5V12H13.335ZM13.334 7C14.2623 7 15.1525 7.36875 15.8089 8.02513C16.4653 8.6815 16.834 9.57174 16.834 10.5C16.834 11.4283 16.4653 12.3185 15.8089 12.9749C15.1525 13.6313 14.2623 14 13.334 14H10.5V17H8.50001V7H13.334Z" fill="#F5F5F5"/>
</g>
</svg>
